# xmcd
#
# Track frame offsets:
#       217
#       13790
#       27600
#       40615
#       55390
#       68905
#       82460
#       96927
#       111032
#       124885
#       136047
#       149280
#       162402
#       174280
#
# Disc length: 2492 seconds
#
# Revision: 0
# Processed by: cddbd v1.4PL0 Copyright (c) Steve Scherf et al.
# Submitted via: WhereIsIt 3.26
#
DISCID=c509ba0e
DTITLE=Billy Holiday - 1935-1938
DYEAR=1900
DGENRE=
TTITLE0=What A Little Moonlight Can Do
TTITLE1=Twenty Four Hours A Day
TTITLE2=You Let Me Down
TTITLE3=These Foolish Things
TTITLE4=Let's Call A Heart A Heart
TTITLE5=The Way You Look Tonight
TTITLE6=Who Loves You
TTITLE7=That's Life I Guess
TTITLE8=Carelessly
TTITLE9=How Could You
TTITLE10=I Wish I Had You
TTITLE11=You're Gonna See A Lot Of Me
TTITLE12=Hello My Darling
TTITLE13=Let's Dream In The Moonlight
EXTD=
EXTT0=
EXTT1=
EXTT2=
EXTT3=
EXTT4=
EXTT5=
EXTT6=
EXTT7=
EXTT8=
EXTT9=
EXTT10=
EXTT11=
EXTT12=
EXTT13=
PLAYORDER=
